<?xml version="1.0" standalone="no"?>
<!DOCTYPE svg PUBLIC "-//W3C//DTD SVG 20010904//EN"
 "http://www.w3.org/TR/2001/REC-SVG-20010904/DTD/svg10.dtd">
<svg version="1.0" xmlns="http://www.w3.org/2000/svg"
 width="300.000000pt" height="300.000000pt" viewBox="0 0 300.000000 300.000000"
 preserveAspectRatio="xMidYMid meet">
<metadata>
Created by potrace 1.14, written by Peter Selinger 2001-2017
</metadata>
<g transform="translate(0.000000,300.000000) scale(0.100000,-0.100000)"
fill="#000000" stroke="none">
<path d="M1508 2203 c6 -2 18 -2 25 0 6 3 1 5 -13 5 -14 0 -19 -2 -12 -5z"/>
<path d="M1432 2137 c-19 -6 -55 -30 -82 -54 -148 -133 -98 -384 88 -447 58
-20 95 -20 161 0 l53 15 -6 52 c-4 28 -8 53 -10 54 -1 1 -20 -4 -41 -12 -83
-29 -148 -10 -199 58 -25 34 -27 117 -3 164 50 95 168 108 236 26 37 -44 51
-107 51 -219 0 -121 29 -164 111 -164 l30 0 -18 33 c-12 24 -18 68 -23 172 -5
117 -10 148 -28 187 -26 53 -88 113 -138 134 -38 16 -134 17 -182 1z"/>
<path d="M1750 2136 c0 -2 8 -10 18 -17 15 -13 16 -12 3 4 -13 16 -21 21 -21
13z"/>
<path d="M1852 1940 c0 -14 2 -19 5 -12 2 6 2 18 0 25 -3 6 -5 1 -5 -13z"/>
<path d="M340 1381 c0 -5 -29 -72 -65 -149 -36 -78 -65 -146 -65 -152 0 -7 17
-10 47 -8 36 2 47 7 49 21 6 44 11 47 88 47 94 0 106 -5 106 -41 0 -28 2 -29
50 -29 28 0 50 3 50 8 1 4 -32 75 -72 159 l-73 152 -57 0 c-32 1 -58 -3 -58
-8z m92 -120 c29 -67 28 -69 -48 -63 l-42 4 26 59 c14 32 28 59 32 59 4 0 18
-27 32 -59z"/>
<path d="M702 1376 c-21 -10 -38 -28 -48 -52 -14 -32 -13 -38 1 -60 20 -30 62
-50 138 -64 60 -12 78 -29 58 -54 -22 -26 -83 -29 -147 -7 -32 11 -60 18 -62
16 -2 -1 0 -19 3 -38 6 -32 10 -36 49 -41 158 -24 246 10 246 94 0 54 -30 76
-125 95 -89 17 -105 26 -85 51 11 13 27 15 80 12 36 -3 72 -8 81 -12 13 -5 19
1 28 25 6 18 9 34 8 36 -2 2 -46 6 -98 9 -71 3 -102 1 -127 -10z"/>
<path d="M986 1361 c12 -23 14 -57 12 -143 -2 -62 -7 -122 -12 -132 -9 -18 -5
-19 106 -13 177 8 230 45 232 159 1 65 -19 100 -75 133 -28 16 -56 21 -156 24
l-122 3 15 -31z m209 -41 c63 -24 66 -143 5 -175 -16 -8 -52 -15 -80 -15 l-50
0 0 100 0 100 49 0 c27 0 61 -4 76 -10z"/>
<path d="M1369 1371 c15 -28 16 -268 1 -286 -11 -13 8 -15 146 -15 l159 0 16
45 c18 49 16 51 -21 30 -17 -9 -56 -14 -117 -15 l-93 0 0 40 0 40 69 0 c61 0
72 3 85 22 9 12 16 25 16 28 0 3 -38 4 -85 2 l-85 -3 0 35 0 36 91 0 c50 0 99
-5 111 -11 26 -14 29 -10 21 34 l-6 37 -159 0 c-152 0 -158 -1 -149 -19z"/>
<path d="M1820 1368 c-57 -30 -84 -75 -83 -143 1 -122 87 -178 236 -152 l67
11 0 38 0 37 -35 -15 c-19 -7 -57 -14 -85 -14 -67 0 -100 30 -100 89 0 60 17
88 66 107 39 15 47 15 89 1 l46 -16 14 32 c7 17 11 35 9 39 -3 5 -44 8 -92 8
-71 0 -96 -4 -132 -22z"/>
<path d="M2187 1376 c-72 -26 -107 -76 -107 -153 0 -94 68 -152 178 -153 120
0 203 82 187 187 -16 105 -138 161 -258 119z m111 -47 c58 -20 82 -90 52 -149
-50 -97 -190 -66 -190 42 0 50 13 74 53 98 37 23 43 24 85 9z"/>
<path d="M2480 1381 c0 -6 5 -13 10 -16 13 -8 13 -251 0 -276 -10 -18 -7 -19
50 -19 57 0 60 1 50 19 -5 11 -10 38 -10 60 0 40 1 41 36 41 42 0 91 -45 101
-92 5 -27 8 -28 59 -28 30 0 54 3 54 6 0 3 -21 33 -46 67 -33 42 -43 62 -34
65 30 10 60 52 60 82 0 79 -43 100 -210 100 -68 0 -120 -4 -120 -9z m234 -67
c36 -36 4 -64 -75 -64 l-59 0 0 40 0 40 59 0 c41 0 65 -5 75 -16z"/>
</g>
</svg>
